<?xml version="1.0" encoding="utf-8"?>
<!-- Generator: Adobe Illustrator 27.1.1, SVG Export Plug-In . SVG Version: 6.00 Build 0)  -->
<svg version="1.1" id="Layer_1" xmlns="http://www.w3.org/2000/svg" xmlns:xlink="http://www.w3.org/1999/xlink" x="0px" y="0px"
	 viewBox="0 0 643.4 355.4" style="enable-background:new 0 0 643.4 355.4;" xml:space="preserve">
<style type="text/css">
	.st0{fill:#FE9C00;}
	.st1{fill:#808080;}
	.st2{fill:#FFFFFF;}
	.st3{fill:#0E7AB7;}
	.st4{fill:#FE0000;}
	.st5{fill:url(#SVGID_1_);}
	.st6{fill:url(#SVGID_00000024716874817599502440000000962901721753996705_);}
	.st7{fill:url(#SVGID_00000181067814111981172490000012052752008722592391_);}
	.st8{fill:#0F79B9;}
	.st9{fill:url(#SVGID_00000024711742102587515700000002208104733276438156_);}
	.st10{fill:url(#SVGID_00000147177931156156840910000012162626924158860442_);}
</style>
<g>
	<path d="M165.21,250.43v1.85h-4.75v15.58h-2.27v-15.58h-4.77v-1.85H165.21z"/>
	<path d="M185.29,252.28v5.83h6.35v1.88h-6.35v6h7.1v1.88h-9.38v-17.45h9.38v1.88H185.29z"/>
	<path d="M211.14,254.55c0.77-1.36,1.81-2.42,3.14-3.19c1.33-0.77,2.8-1.15,4.41-1.15c1.9,0,3.56,0.46,4.98,1.38
		c1.42,0.92,2.45,2.22,3.1,3.9h-2.73c-0.48-1.05-1.18-1.86-2.09-2.42c-0.91-0.57-2-0.85-3.26-0.85c-1.22,0-2.31,0.28-3.27,0.85
		c-0.97,0.57-1.73,1.37-2.27,2.41c-0.55,1.04-0.83,2.26-0.83,3.66c0,1.38,0.27,2.6,0.83,3.64c0.55,1.04,1.31,1.85,2.27,2.41
		c0.97,0.57,2.06,0.85,3.27,0.85c1.27,0,2.35-0.28,3.26-0.84c0.91-0.56,1.6-1.36,2.09-2.41h2.73c-0.65,1.67-1.68,2.95-3.1,3.86
		c-1.42,0.91-3.08,1.36-4.98,1.36c-1.62,0-3.09-0.38-4.41-1.14c-1.32-0.76-2.37-1.81-3.14-3.16c-0.77-1.35-1.15-2.88-1.15-4.57
		C209.99,257.43,210.37,255.91,211.14,254.55z"/>
	<path d="M258.56,250.43v17.42h-2.27v-7.9h-8.88v7.9h-2.28v-17.42h2.28v7.65h8.88v-7.65H258.56z"/>
	<path d="M301.39,266.01h6.1v1.85h-8.38v-17.42h2.28V266.01z"/>
	<path d="M327.19,250.43v17.42h-2.28v-17.42H327.19z"/>
	<path d="M363.74,250.56v17.3h-2.27v-12.9l-5.75,12.9h-1.6l-5.77-12.92v12.92h-2.28v-17.3h2.45l6.4,14.3l6.4-14.3H363.74z"/>
	<path d="M384.86,250.43v17.42h-2.28v-17.42H384.86z"/>
	<path d="M414.46,250.43v1.85h-4.75v15.58h-2.28v-15.58h-4.78v-1.85H414.46z"/>
	<path d="M434.54,252.28v5.83h6.35v1.88h-6.35v6h7.1v1.88h-9.38v-17.45h9.38v1.88H434.54z"/>
	<path d="M470.45,251.5c1.39,0.71,2.46,1.72,3.2,3.04c0.74,1.32,1.11,2.87,1.11,4.65s-0.37,3.33-1.11,4.64s-1.81,2.31-3.2,3
		s-3.04,1.04-4.94,1.04h-5.42v-17.42h5.42C467.41,250.43,469.06,250.79,470.45,251.5z M470.66,264.2c1.18-1.19,1.78-2.86,1.78-5.01
		c0-2.17-0.6-3.86-1.79-5.08s-2.9-1.83-5.14-1.83h-3.15v13.7h3.15C467.76,265.98,469.48,265.39,470.66,264.2z"/>
</g>
<g>
	<path class="st8" d="M190.25,126.25l-46.07,96h-41.61l64.54-134.76h46.07l9.54,19.69C209.13,102.3,198.78,109.6,190.25,126.25z
		 M277.93,222.24h-41.81l-13.8-28.82h-54.6l14-29.23h26.59l-13.19-27.81l3.04-6.29c5.28-10.35,12.99-17.66,22.12-15.63
		c4.87,1.01,8.73,5.89,10.96,10.55C231.25,125.03,261.49,188.15,277.93,222.24z"/>
	<path class="st1" d="M405.39,87.48c0,15.63-17.05,29.23-35.52,29.23H244.45c1.83-14.82,16.44-29.23,33.89-29.23H405.39z
		 M345.52,125.64v96.41h-41.4v-96.41H345.52z"/>
	<path class="st8" d="M534.02,87.48c-1.89,16.44-12.93,29.23-26.17,29.23h-66.21c-7.72,0-18.6,2.44-25.7,13.8v-8.52
		c0-19.08,11.98-34.5,26.64-34.5H534.02z"/>
	<path class="st8" d="M540.83,193.22c-2.64,16.64-17.25,29.23-34.1,29.23h-56.49c-18.88,0-34.3-15.42-34.3-34.3v-28.62
		c0-22.53,6.54-33.08,27.85-33.08h8.52v2.44v54.39c0,2.84,5.64,9.94,16.2,9.94H540.83z"/>
</g>
</svg>
