<?xml version="1.0" encoding="utf-8"?>
<!-- Generator: Adobe Illustrator 27.1.1, SVG Export Plug-In . SVG Version: 6.00 Build 0)  -->
<svg version="1.1" id="Layer_1" xmlns="http://www.w3.org/2000/svg" xmlns:xlink="http://www.w3.org/1999/xlink" x="0px" y="0px"
	 viewBox="0 0 643.4 355.4" style="enable-background:new 0 0 643.4 355.4;" xml:space="preserve">
<style type="text/css">
	.st0{fill:#FE9C00;}
	.st1{fill:#808080;}
	.st2{fill:#FFFFFF;}
	.st3{fill:#0E7AB7;}
	.st4{fill:#FE0000;}
	.st5{fill:url(#SVGID_1_);}
	.st6{fill:url(#SVGID_00000132070024011565574190000013828678430576668582_);}
	.st7{fill:url(#SVGID_00000072281968216460911150000015553169547077055115_);}
	.st8{fill:#0F79B9;}
	.st9{fill:url(#SVGID_00000054250602472898379500000017407222617142850972_);}
	.st10{fill:url(#SVGID_00000030466769409559440860000000682816970209411970_);}
</style>
<g>
	<path d="M153.05,242.67v2.12h-5.46v17.89h-2.61V244.8h-5.48v-2.12H153.05z"/>
	<path d="M176.11,244.8v6.69h7.29v2.15h-7.29v6.89h8.15v2.15H173.5v-20.04h10.77v2.15H176.11z"/>
	<path d="M205.8,247.4c0.88-1.56,2.08-2.78,3.6-3.66c1.52-0.88,3.21-1.32,5.07-1.32c2.18,0,4.09,0.53,5.71,1.58
		c1.63,1.05,2.81,2.55,3.56,4.48h-3.13c-0.56-1.21-1.35-2.13-2.4-2.79c-1.04-0.65-2.29-0.98-3.75-0.98c-1.4,0-2.65,0.33-3.76,0.98
		c-1.11,0.65-1.98,1.57-2.61,2.77c-0.63,1.2-0.95,2.6-0.95,4.21c0,1.59,0.32,2.98,0.95,4.18c0.63,1.2,1.5,2.12,2.61,2.77
		c1.11,0.65,2.36,0.98,3.76,0.98c1.45,0,2.7-0.32,3.75-0.96c1.04-0.64,1.84-1.57,2.4-2.77h3.13c-0.75,1.91-1.93,3.39-3.56,4.44
		c-1.63,1.04-3.53,1.57-5.71,1.57c-1.86,0-3.55-0.44-5.07-1.31c-1.52-0.87-2.72-2.08-3.6-3.63c-0.88-1.55-1.32-3.3-1.32-5.25
		C204.48,250.71,204.92,248.96,205.8,247.4z"/>
	<path d="M260.28,242.67v20.01h-2.61v-9.07h-10.19v9.07h-2.61v-20.01h2.61v8.79h10.19v-8.79H260.28z"/>
	<path d="M309.47,260.56h7.01v2.12h-9.62v-20.01h2.61V260.56z"/>
	<path d="M339.1,242.67v20.01h-2.61v-20.01H339.1z"/>
	<path d="M381.09,242.82v19.87h-2.61v-14.82l-6.6,14.82h-1.84l-6.63-14.85v14.85h-2.61v-19.87h2.81l7.35,16.43l7.35-16.43H381.09z"
		/>
	<path d="M405.35,242.67v20.01h-2.61v-20.01H405.35z"/>
	<path d="M439.35,242.67v2.12h-5.46v17.89h-2.61V244.8h-5.49v-2.12H439.35z"/>
	<path d="M462.41,244.8v6.69h7.29v2.15h-7.29v6.89h8.15v2.15H459.8v-20.04h10.77v2.15H462.41z"/>
	<path d="M503.66,243.89c1.6,0.81,2.82,1.98,3.68,3.49c0.85,1.51,1.28,3.29,1.28,5.34s-0.43,3.82-1.28,5.33
		c-0.85,1.5-2.08,2.65-3.68,3.45c-1.6,0.79-3.49,1.19-5.67,1.19h-6.23v-20.01h6.23C500.17,242.67,502.06,243.08,503.66,243.89z
		 M503.9,258.48c1.36-1.37,2.04-3.29,2.04-5.76c0-2.49-0.69-4.43-2.05-5.83c-1.37-1.4-3.34-2.1-5.9-2.1h-3.62v15.74h3.62
		C500.57,260.54,502.54,259.85,503.9,258.48z"/>
</g>
<g>
	<path class="st8" d="M212.81,138.5l-38.99,81.24h-35.21l54.62-114.05h38.99l8.07,16.66C228.79,118.23,220.03,124.41,212.81,138.5z
		 M287.01,219.74h-35.38l-11.68-24.39h-46.2l11.85-24.73h22.5l-11.16-23.53l2.58-5.32c4.47-8.76,10.99-14.94,18.72-13.22
		c4.12,0.86,7.39,4.98,9.27,8.93C247.51,137.46,273.1,190.88,287.01,219.74z"/>
	<path class="st1" d="M394.88,105.69c0,13.22-14.43,24.73-30.06,24.73H258.67c1.55-12.54,13.91-24.73,28.68-24.73H394.88z
		 M344.21,137.98v81.59h-35.04v-81.59H344.21z"/>
	<path class="st8" d="M503.74,105.69c-1.6,13.91-10.94,24.73-22.15,24.73h-56.03c-6.54,0-15.74,2.06-21.75,11.68v-7.21
		c0-16.15,10.14-29.2,22.55-29.2H503.74z"/>
	<path class="st8" d="M509.5,195.18c-2.23,14.08-14.6,24.73-28.86,24.73h-47.8c-15.97,0-29.03-13.05-29.03-29.03v-24.22
		c0-19.07,5.53-28,23.57-28h7.21v2.06v46.03c0,2.4,4.77,8.42,13.71,8.42H509.5z"/>
</g>
</svg>
